HIERARCHY
ROOT reference
{
  OFFSET 0 0 0
  CHANNELS 6 Xposition Yposition Zposition Zrotation Xrotation Yrotation
  JOINT Hips
  {
    OFFSET 347.352 87.9396 215.108
    CHANNELS 3 Zrotation Xrotation Yrotation
    JOINT RightUpLeg
    {
      OFFSET -9.26448 -1.5905 0.0349838
      CHANNELS 3 Zrotation Xrotation Yrotation
      JOINT RightLeg
      {
        OFFSET 0.0309074 -41.8937 0.0182011
        CHANNELS 3 Zrotation Xrotation Yrotation
        JOINT RightFoot
        {
          OFFSET 0.355296 -42.3801 0.810868
          CHANNELS 3 Zrotation Xrotation Yrotation
          End Site
          {
            OFFSET 0 -7.69 17.5
          }
        }
      }
    }
    JOINT LeftUpLeg
    {
      OFFSET 9.27369 -1.59127 -0.0547904
      CHANNELS 3 Zrotation Xrotation Yrotation
      JOINT LeftLeg
      {
        OFFSET 0.0553589 -41.8938 0.0587288
        CHANNELS 3 Zrotation Xrotation Yrotation
        JOINT LeftFoot
        {
          OFFSET 0.217916 -41.5497 -0.688939
          CHANNELS 3 Zrotation Xrotation Yrotation
          End Site
          {
            OFFSET 0 -7.69 17.5
          }
        }
      }
    }
    JOINT Spine
    {
      OFFSET 0.0383554 14.2988 0.0402393
      CHANNELS 3 Zrotation Xrotation Yrotation
      JOINT Spine1
      {
        OFFSET 0.0188251 9.70742 0.0136471
        CHANNELS 3 Zrotation Xrotation Yrotation
        JOINT Spine2
        {
          OFFSET 0.0421292 10.115 0.0126686
          CHANNELS 3 Zrotation Xrotation Yrotation
          JOINT Spine3
          {
            OFFSET 0.0499826 9.71803 0.0151296
            CHANNELS 3 Zrotation Xrotation Yrotation
            JOINT Neck
            {
              OFFSET 0.04654 10.3867 0.0448026
              CHANNELS 3 Zrotation Xrotation Yrotation
              JOINT Head
              {
                OFFSET 0.0370611 9.47282 0.0189897
                CHANNELS 3 Zrotation Xrotation Yrotation
                End Site
                {
                  OFFSET 0 15.95 0
                }
              }
            }
            JOINT RightShoulder
            {
              OFFSET -3.19309 6.93146 -0.00624137
              CHANNELS 3 Zrotation Xrotation Yrotation
              JOINT RightArm
              {
                OFFSET -12.7764 0.00688168 -0.00548706
                CHANNELS 3 Zrotation Xrotation Yrotation
                JOINT RightForeArm
                {
                  OFFSET -26.5073 -0.0244096 0.0677859
                  CHANNELS 3 Zrotation Xrotation Yrotation
                  JOINT RightHand
                  {
                    OFFSET -26.0056 -0.000416843 0.0508974
                    CHANNELS 3 Zrotation Xrotation Yrotation
                    JOINT RightHandThumb1
                    {
                      OFFSET -2.48905 0.190105 3.12053
                      CHANNELS 3 Zrotation Xrotation Yrotation
                      JOINT RightHandThumb2
                      {
                        OFFSET -3.68274 0 0
                        CHANNELS 3 Zrotation Xrotation Yrotation
                        JOINT RightHandThumb3
                        {
                          OFFSET -2.55832 0 0
                          CHANNELS 3 Zrotation Xrotation Yrotation
                          End Site
                          {
                            OFFSET -2.194 0 0
                          }
                        }
                      }
                    }
                    JOINT RightInHandIndex
                    {
                      OFFSET -3.22368 0.508421 1.97842
                      CHANNELS 3 Zrotation Xrotation Yrotation
                      JOINT RightHandIndex1
                      {
                        OFFSET -5.21684 -0.091368 0.999158
                        CHANNELS 3 Zrotation Xrotation Yrotation
                        JOINT RightHandIndex2
                        {
                          OFFSET -3.61937 0 0
                          CHANNELS 3 Zrotation Xrotation Yrotation
                          JOINT RightHandIndex3
                          {
                            OFFSET -2.0521 0 0
                            CHANNELS 3 Zrotation Xrotation Yrotation
                            End Site
                            {
                              OFFSET -1.805 0 0
                            }
                          }
                        }
                      }
                    }
                    JOINT RightInHandMiddle
                    {
                      OFFSET -3.38211 0.517263 0.756737
                      CHANNELS 3 Zrotation Xrotation Yrotation
                      JOINT RightHandMiddle1
                      {
                        OFFSET -5.17411 -0.084 0.313895
                        CHANNELS 3 Zrotation Xrotation Yrotation
                        JOINT RightHandMiddle2
                        {
                          OFFSET -3.94947 0 0
                          CHANNELS 3 Zrotation Xrotation Yrotation
                          JOINT RightHandMiddle3
                          {
                            OFFSET -2.47579 0 0
                            CHANNELS 3 Zrotation Xrotation Yrotation
                            End Site
                            {
                              OFFSET -1.975 0 0
                            }
                          }
                        }
                      }
                    }
                    JOINT RightInHandRing
                    {
                      OFFSET -3.36516 0.537895 -0.128947
                      CHANNELS 3 Zrotation Xrotation Yrotation
                      JOINT RightHandRing1
                      {
                        OFFSET -4.63474 -0.022105 -0.478947
                        CHANNELS 3 Zrotation Xrotation Yrotation
                        JOINT RightHandRing2
                        {
                          OFFSET -3.44238 0 0
                          CHANNELS 3 Zrotation Xrotation Yrotation
                          JOINT RightHandRing3
                          {
                            OFFSET -2.3881 0 0
                            CHANNELS 3 Zrotation Xrotation Yrotation
                            End Site
                            {
                              OFFSET -1.857 0 0
                            }
                          }
                        }
                      }
                    }
                    JOINT RightInHandPinky
                    {
                      OFFSET -3.16105 0.469368 -1.20179
                      CHANNELS 3 Zrotation Xrotation Yrotation
                      JOINT RightHandPinky1
                      {
                        OFFSET -4.14105 -0.022105 -1.09053
                        CHANNELS 3 Zrotation Xrotation Yrotation
                        JOINT RightHandPinky2
                        {
                          OFFSET -2.75653 0 0
                          CHANNELS 3 Zrotation Xrotation Yrotation
                          JOINT RightHandPinky3
                          {
                            OFFSET -1.74189 0 0
                            CHANNELS 3 Zrotation Xrotation Yrotation
                            End Site
                            {
                              OFFSET -1.645 0 0
                            }
                          }
                        }
                      }
                    }
                  }
                }
              }
            }
            JOINT LeftShoulder
            {
              OFFSET 3.25131 6.94393 -0.0111894
              CHANNELS 3 Zrotation Xrotation Yrotation
              JOINT LeftArm
              {
                OFFSET 12.7762 -0.0164608 -0.057961
                CHANNELS 3 Zrotation Xrotation Yrotation
                JOINT LeftForeArm
                {
                  OFFSET 26.494 -0.0292415 -0.00751187
                  CHANNELS 3 Zrotation Xrotation Yrotation
                  JOINT LeftHand
                  {
                    OFFSET 26.0005 -0.052199 0.00178648
                    CHANNELS 3 Zrotation Xrotation Yrotation
                    JOINT LeftHandThumb1
                    {
                      OFFSET 2.48905 0.190105 3.12053
                      CHANNELS 3 Zrotation Xrotation Yrotation
                      JOINT LeftHandThumb2
                      {
                        OFFSET 3.68274 0 0
                        CHANNELS 3 Zrotation Xrotation Yrotation
                        JOINT LeftHandThumb3
                        {
                          OFFSET 2.55832 0 0
                          CHANNELS 3 Zrotation Xrotation Yrotation
                          End Site
                          {
                            OFFSET 2.194 0 0
                          }
                        }
                      }
                    }
                    JOINT LeftInHandIndex
                    {
                      OFFSET 3.22368 0.508421 1.97842
                      CHANNELS 3 Zrotation Xrotation Yrotation
                      JOINT LeftHandIndex1
                      {
                        OFFSET 5.21684 -0.091368 0.999158
                        CHANNELS 3 Zrotation Xrotation Yrotation
                        JOINT LeftHandIndex2
                        {
                          OFFSET 3.61937 0 0
                          CHANNELS 3 Zrotation Xrotation Yrotation
                          JOINT LeftHandIndex3
                          {
                            OFFSET 2.0521 0 0
                            CHANNELS 3 Zrotation Xrotation Yrotation
                            End Site
                            {
                              OFFSET 1.805 0 0
                            }
                          }
                        }
                      }
                    }
                    JOINT LeftInHandMiddle
                    {
                      OFFSET 3.38211 0.517263 0.756737
                      CHANNELS 3 Zrotation Xrotation Yrotation
                      JOINT LeftHandMiddle1
                      {
                        OFFSET 5.17411 -0.084 0.313895
                        CHANNELS 3 Zrotation Xrotation Yrotation
                        JOINT LeftHandMiddle2
                        {
                          OFFSET 3.94947 0 0
                          CHANNELS 3 Zrotation Xrotation Yrotation
                          JOINT LeftHandMiddle3
                          {
                            OFFSET 2.47579 0 0
                            CHANNELS 3 Zrotation Xrotation Yrotation
                            End Site
                            {
                              OFFSET 1.975 0 0
                            }
                          }
                        }
                      }
                    }
                    JOINT LeftInHandRing
                    {
                      OFFSET 3.36516 0.537895 -0.128947
                      CHANNELS 3 Zrotation Xrotation Yrotation
                      JOINT LeftHandRing1
                      {
                        OFFSET 4.63474 -0.022105 -0.478947
                        CHANNELS 3 Zrotation Xrotation Yrotation
                        JOINT LeftHandRing2
                        {
                          OFFSET 3.44238 0 0
                          CHANNELS 3 Zrotation Xrotation Yrotation
                          JOINT LeftHandRing3
                          {
                            OFFSET 2.3881 0 0
                            CHANNELS 3 Zrotation Xrotation Yrotation
                            End Site
                            {
                              OFFSET 1.857 0 0
                            }
                          }
                        }
                      }
                    }
                    JOINT LeftInHandPinky
                    {
                      OFFSET 3.16105 0.469368 -1.20179
                      CHANNELS 3 Zrotation Xrotation Yrotation
                      JOINT LeftHandPinky1
                      {
                        OFFSET 4.14105 -0.022105 -1.09053
                        CHANNELS 3 Zrotation Xrotation Yrotation
                        JOINT LeftHandPinky2
                        {
                          OFFSET 2.75653 0 0
                          CHANNELS 3 Zrotation Xrotation Yrotation
                          JOINT LeftHandPinky3
                          {
                            OFFSET 1.74189 0 0
                            CHANNELS 3 Zrotation Xrotation Yrotation
                            End Site
                            {
                              OFFSET 1.645 0 0
                            }
                          }
                        }
                      }
                    }
                  }
                }
              }
            }
          }
        }
      }
    }
  }
}
MOTION
Frames: 2
Frame Time: 0.00833333
9.000000000000000000e+02 0.000000000000000000e+00 0.000000000000000000e+00 0.000000000000000000e+00 0.000000000000000000e+00 0.000000000000000000e+00 3.003930038417842141e+01 1.533251023493611642e+00 -1.119688327824843128e+02 2.781228475632742558e+01 -5.315580501889762388e+01 2.108143508172305758e+01 -4.721115157370255666e+00 2.466546958319469596e+01 -1.412105728902588897e+00 4.837822627275055964e+00 9.478173325565981688e-01 4.129194220291703488e+01 4.260056337706860319e+01 -9.394195397460544328e+00 1.954814438058190262e+01 -8.664385275110545237e+00 2.296342591015341839e+01 4.357015876675949251e+00 -1.244653300049275479e+01 -2.016555353622379343e+01 1.224315424491321735e+01 -1.041693762411625102e+01 -4.023390429711559690e+00 -1.684479463756097584e+00 -2.634799332606854616e+00 -1.047438096408870756e+00 -2.800864158102553403e-01 -4.331632232469861066e+00 -1.723998073417912336e+00 -2.775091192335902290e-01 -6.485449906536263631e-01 -1.379191697721840471e-01 2.421277996091363960e+00 -1.825312437680164601e+00 -1.661827801219851075e+00 1.892852974630294938e+01 -1.118609902833318870e+01 1.233191405445887234e+00 3.509544400183450819e+01 9.560806757194239225e+00 2.272804999485756650e+00 -7.662962491761640571e+00 6.684302603403607179e+01 -5.840989558105759727e+01 1.807723755337898908e+01 4.664301690611527107e+01 -8.462841906967636163e+00 1.180767300222201897e+02 1.061431367989921881e+01 -2.580574278291499724e+01 4.297867295328860138e+00 2.818400000000000105e+01 1.072940000000000005e+01 1.915919999999999845e+01 2.497157483266901496e-14 -2.304086881389219261e-15 -1.000000000000000000e+01 1.985444808766513517e-15 -2.995098960433715218e-15 -1.000000000000000000e+01 -3.143304708792644004e-15 7.921856842407412069e-15 -1.179237121480465451e-15 1.998179999999999978e+01 8.718970000000000331e-01 2.396399999999999864e+00 2.400000000000000000e+01 8.016088707181315476e-15 4.051340845008385200e-14 2.000000000000000000e+01 1.513357017882385480e-15 2.518107727551940717e-14 -3.143304708792644004e-15 7.921856842407412069e-15 -1.179237121480465451e-15 2.000000000000000000e+01 9.560761196344342198e-16 1.363144052117332843e-14 2.400000000000000000e+01 5.255676895330286601e-15 2.310705443748758435e-14 2.000000000000000000e+01 1.396429775030089891e-14 2.929920001977805960e-14 -3.143304708792644004e-15 7.921856842407412069e-15 -1.179237121480465451e-15 1.997479999999999833e+01 -1.025649999999999951e+00 -2.819380000000000219e+00 2.400000000000000000e+01 4.188381307038662894e-15 1.438617936090497720e-14 2.000000000000000000e+01 -5.276740968371113118e-15 1.248439475390821892e-14 -3.143304708792644004e-15 7.921856842407412069e-15 -1.179237121480465451e-15 1.978150000000000119e+01 -3.009479999999999933e+00 -8.305149999999999366e+00 2.400000000000000000e+01 -1.747070581096020466e-16 1.723801735861331002e-14 2.000000000000000000e+01 4.103619552574437598e-15 1.473262816709452044e-14 1.127037260739978741e+01 -1.453556264034521028e+01 -5.516139016819568042e+01 -9.490195350959332643e+00 2.811751737993022360e+01 -1.143824690915145368e+02 3.322815217322678905e+01 -7.330130395079942573e+00 -1.719035312623736900e+01 -3.697701094544288480e+01 -7.215053825396283038e+00 -1.037791009833800260e+01 -2.818400000000000105e+01 1.072940000000000005e+01 -1.915919999999999845e+01 3.713330358042861996e-15 -1.063604705200999972e-14 1.000000000000000000e+01 -5.737091852930305054e-15 -8.365429925693824217e-16 1.000000000000000000e+01 5.990628743439592414e-15 -5.336819676266464781e-15 -1.906208500111754118e-15 -1.998179999999999978e+01 8.718970000000000331e-01 -2.396399999999999864e+00 -2.400000000000000000e+01 -2.418571029579044085e-15 -2.205233916148191610e-14 -2.000000000000000000e+01 7.534481138907738362e-15 -1.364001822472360192e-14 5.990628743439592414e-15 -5.336819676266464781e-15 -1.906208500111754118e-15 -2.000000000000000000e+01 9.244618105273413938e-15 3.764853665672614915e-16 -2.400000000000000000e+01 3.928628920659348383e-15 -1.586305031571057003e-14 -2.000000000000000000e+01 1.047021284505604272e-14 -2.019392678312266501e-14 5.990628743439592414e-15 -5.336819676266464781e-15 -1.906208500111754118e-15 -1.997479999999999833e+01 -1.025649999999999951e+00 2.819380000000000219e+00 -2.400000000000000000e+01 2.120119735029824734e-15 -4.277942221504228221e-15 -2.000000000000000000e+01 5.544565461970784491e-15 -1.022863665848041911e-14 5.990628743439592414e-15 -5.336819676266464781e-15 -1.906208500111754118e-15 -1.978150000000000119e+01 -3.009479999999999933e+00 8.305149999999999366e+00 -2.400000000000000000e+01 9.185518401700628417e-15 -1.348014817938057841e-14 -2.000000000000000000e+01 -4.092559263159423148e-15 -1.049384992201040012e-14
9.000000000000000000e+02 0.000000000000000000e+00 0.000000000000000000e+00 0.000000000000000000e+00 0.000000000000000000e+00 0.000000000000000000e+00 2.996796686867419979e+01 1.563140010540809977e+00 -1.117634820353511316e+02 2.781318584587303278e+01 -5.292119940014909929e+01 2.109375358931656308e+01 -4.720676529220162898e+00 2.460048503485031191e+01 -1.432385063394440827e+00 4.828596503958392461e+00 9.151555111829118294e-01 4.120146149218555820e+01 4.246021630073558129e+01 -9.361950784899518041e+00 1.939471949582253885e+01 -8.626562671844975938e+00 2.295224511221735852e+01 4.324787372730991564e+00 -1.237128282632485110e+01 -2.010342435521330628e+01 1.217303692368304802e+01 -1.037655704011343261e+01 -4.011848962541209929e+00 -1.635203447449878222e+00 -2.623524772184859355e+00 -1.046121657854298670e+00 -2.656856641735509950e-01 -4.313870094578970082e+00 -1.722590135200534167e+00 -2.573848953672353002e-01 -6.447644445839300076e-01 -1.357016762839076407e-01 2.413442504450777015e+00 -1.812025713321433695e+00 -1.663065694742209111e+00 1.885612705629524299e+01 -1.111991885837097449e+01 1.288334859979457292e+00 3.498814691349785733e+01 9.512760016901831150e+00 2.254376229886783545e+00 -7.665138593669334810e+00 6.677561665559838389e+01 -5.832321205530212183e+01 1.816626357123796609e+01 4.638549406035055966e+01 -8.271484045635515869e+00 1.179570607810743326e+02 1.064614278388816970e+01 -2.582244491748908999e+01 4.347944196612118617e+00 2.818400000000000105e+01 1.072940000000000005e+01 1.915919999999999845e+01 2.496542792669020259e-14 -2.288707344457906376e-15 -1.000000000000000000e+01 1.948294343623145801e-15 -2.990503956225182690e-15 -1.000000000000000000e+01 -3.165580058005617288e-15 7.944698252572511915e-15 -1.176664547030640229e-15 1.998179999999999978e+01 8.718970000000000331e-01 2.396399999999999864e+00 2.400000000000000000e+01 8.030486669662641136e-15 4.052494109782367550e-14 2.000000000000000000e+01 1.535715926254332206e-15 2.516768335779765709e-14 -3.165580058005617288e-15 7.944698252572511915e-15 -1.176664547030640229e-15 2.000000000000000000e+01 9.716568696370855930e-16 1.363293866033527422e-14 2.400000000000000000e+01 5.246162052472386772e-15 2.312106885348863819e-14 2.000000000000000000e+01 1.394822506700641402e-14 2.928479961364433678e-14 -3.165580058005617288e-15 7.944698252572511915e-15 -1.176664547030640229e-15 1.997479999999999833e+01 -1.025649999999999951e+00 -2.819380000000000219e+00 2.400000000000000000e+01 4.194122880501693326e-15 1.440335553183095940e-14 2.000000000000000000e+01 -5.237728314708651896e-15 1.248168947012211999e-14 -3.165580058005617288e-15 7.944698252572511915e-15 -1.176664547030640229e-15 1.978150000000000119e+01 -3.009479999999999933e+00 -8.305149999999999366e+00 2.400000000000000000e+01 -1.494562140146039238e-16 1.724314548561426881e-14 2.000000000000000000e+01 4.095929489453635303e-15 1.474187289110856507e-14 1.122059881563688677e+01 -1.454296926778510191e+01 -5.514784342875611856e+01 -9.602115902050961438e+00 2.803680292949892561e+01 -1.142805293347200433e+02 3.293501421326060097e+01 -7.354614077406273154e+00 -1.760462937407531214e+01 -3.700479168121557905e+01 -7.203286383185002251e+00 -1.047930291489027610e+01 -2.818400000000000105e+01 1.072940000000000005e+01 -1.915919999999999845e+01 3.687217818567087401e-15 -1.065324540731857515e-14 1.000000000000000000e+01 -5.744516060809860018e-15 -8.677428503572504077e-16 1.000000000000000000e+01 5.992144914903181012e-15 -5.362057978459412804e-15 -1.920556813581688809e-15 -1.998179999999999978e+01 8.718970000000000331e-01 -2.396399999999999864e+00 -2.400000000000000000e+01 -2.447008064969179846e-15 -2.203001085091492546e-14 -2.000000000000000000e+01 7.513144728569854718e-15 -1.361139077592696318e-14 5.992144914903181012e-15 -5.362057978459412804e-15 -1.920556813581688809e-15 -2.000000000000000000e+01 9.258877858706476254e-15 3.894266980525969678e-16 -2.400000000000000000e+01 3.910350826726033949e-15 -1.583912469676911134e-14 -2.000000000000000000e+01 1.046044635542146912e-14 -2.017784060858450705e-14 5.992144914903181012e-15 -5.362057978459412804e-15 -1.920556813581688809e-15 -1.997479999999999833e+01 -1.025649999999999951e+00 2.819380000000000219e+00 -2.400000000000000000e+01 2.117335241610015682e-15 -4.260524673129057016e-15 -2.000000000000000000e+01 5.518319391627685316e-15 -1.018380170057647354e-14 5.992144914903181012e-15 -5.362057978459412804e-15 -1.920556813581688809e-15 -1.978150000000000119e+01 -3.009479999999999933e+00 8.305149999999999366e+00 -2.400000000000000000e+01 9.182543355554563399e-15 -1.346840355628057157e-14 -2.000000000000000000e+01 -4.127606829806559287e-15 -1.048269809865851212e-14
